<?xml version="1.0" standalone="no"?>
<svg xmlns="http://www.w3.org/2000/svg" width="414.7677422602567" height="92.28774226025672" viewBox="0 0 414.7677422602567 92.28774226025672"><g fill="#ead017" color="#ead017" transform="translate(0 0) scale(2.1973272)"><svg width="42.0" height="42.0" x="0.0" y="0.0" viewBox="0 0 42 42"><path fill="currentColor" fill-rule="nonzero" d="M21 41.41L41.41.59H.59L21 41.41zm0-7.61l-11.5-23h15.4l-1.7 3.4H15l6 12 9.4-18.8H7.8L6.1 4h29.8L21 33.8z"></path></svg></g><path fill="#000000" fill-rule="nonzero" d="M1.80 28.52Q1 28.52 0.50 28Q0 27.48 0 26.72L0 26.72Q0 26.40 0.20 25.92L0.20 25.92L10.40 1.84Q10.72 1.12 11.30 0.66Q11.88 0.20 12.72 0.20L12.72 0.20L13.12 0.20Q13.96 0.20 14.54 0.66Q15.12 1.12 15.44 1.84L15.44 1.84L25.64 25.92Q25.84 26.40 25.84 26.72L25.84 26.72Q25.84 27.48 25.34 28Q24.84 28.52 24.04 28.52L24.04 28.52Q23.48 28.52 23.02 28.22Q22.56 27.92 22.32 27.40L22.32 27.40L19.72 21.16L6.12 21.16L3.52 27.40Q3.28 27.92 2.82 28.22Q2.36 28.52 1.80 28.52L1.80 28.52ZM12.92 4.84L7.52 17.84L18.32 17.84L12.92 4.84ZM33.52 28.52Q32.76 28.52 32.24 28Q31.72 27.48 31.72 26.72L31.72 26.72L31.72 2.84Q31.72 1.76 32.48 0.98Q33.24 0.20 34.32 0.20L34.32 0.20L35.64 0.20Q36.44 0.20 37.10 0.68Q37.76 1.16 38.08 1.88L38.08 1.88L47.16 24.52L56.24 1.88Q56.56 1.16 57.22 0.68Q57.88 0.20 58.68 0.20L58.68 0.20L60 0.20Q61.08 0.20 61.84 0.98Q62.60 1.76 62.60 2.84L62.60 2.84L62.60 26.72Q62.60 27.48 62.08 28Q61.56 28.52 60.80 28.52L60.80 28.52Q60.04 28.52 59.50 28Q58.96 27.48 58.96 26.72L58.96 26.72L58.96 4L49.72 26.84Q49.40 27.60 48.70 28.06Q48 28.52 47.16 28.52L47.16 28.52Q46.32 28.52 45.62 28.06Q44.92 27.60 44.60 26.84L44.60 26.84L35.36 4L35.36 26.72Q35.36 27.48 34.82 28Q34.28 28.52 33.52 28.52L33.52 28.52ZM72.88 28.32Q71.84 28.32 71.10 27.58Q70.36 26.84 70.36 25.80L70.36 25.80L70.36 2.04Q70.36 1.28 70.88 0.74Q71.40 0.20 72.16 0.20L72.16 0.20Q72.92 0.20 73.46 0.74Q74 1.28 74 2.04L74 2.04L74 24.68L87.08 24.68Q87.84 24.68 88.38 25.22Q88.92 25.76 88.92 26.52L88.92 26.52Q88.92 27.28 88.38 27.80Q87.84 28.32 87.08 28.32L87.08 28.32L72.88 28.32ZM93.88 18.72Q93.20 18.72 92.74 18.26Q92.28 17.80 92.28 17.12L92.28 17.12Q92.28 16.44 92.74 15.96Q93.20 15.48 93.88 15.48L93.88 15.48L101.44 15.48Q102.12 15.48 102.60 15.96Q103.08 16.44 103.08 17.12L103.08 17.12Q103.08 17.80 102.60 18.26Q102.12 18.72 101.44 18.72L101.44 18.72L93.88 18.72ZM111.52 28.52Q110.76 28.52 110.24 28Q109.72 27.48 109.72 26.72L109.72 26.72L109.72 2.24Q109.72 1.48 110.24 0.94Q110.76 0.40 111.52 0.40L111.52 0.40L120.64 0.40Q124.44 0.40 126.84 1.68Q129.24 2.96 130.28 4.96Q131.32 6.96 131.32 9.28L131.32 9.28Q131.32 11.60 130.28 13.60Q129.24 15.60 126.84 16.88Q124.44 18.16 120.64 18.16L120.64 18.16L113.36 18.16L113.36 26.72Q113.36 27.48 112.82 28Q112.28 28.52 111.52 28.52L111.52 28.52ZM113.36 14.72L120.28 14.72Q124.36 14.72 126.02 13.16Q127.68 11.60 127.68 9.28L127.68 9.28Q127.68 6.96 126.02 5.40Q124.36 3.84 120.28 3.84L120.28 3.84L113.36 3.84L113.36 14.72ZM148.92 28.72Q144.92 28.72 141.74 26.98Q138.56 25.24 136.74 21.98Q134.92 18.72 134.92 14.36L134.92 14.36Q134.92 10 136.74 6.74Q138.56 3.48 141.74 1.74Q144.92 0 148.92 0L148.92 0Q151.64 0 153.78 0.64Q155.92 1.28 158.04 2.48L158.04 2.48Q158.92 2.96 158.92 4L158.92 4Q158.92 4.60 158.48 5.06Q158.04 5.52 157.32 5.52L157.32 5.52Q156.92 5.52 156.60 5.36L156.60 5.36Q154.84 4.44 153.16 3.96Q151.48 3.48 149.28 3.48L149.28 3.48Q145.84 3.48 143.42 4.90Q141 6.32 139.78 8.78Q138.56 11.24 138.56 14.36L138.56 14.36Q138.56 17.48 139.78 19.94Q141 22.40 143.42 23.82Q145.84 25.24 149.28 25.24L149.28 25.24Q151.48 25.24 153.16 24.76Q154.84 24.28 156.60 23.36L156.60 23.36Q156.92 23.20 157.32 23.20L157.32 23.20Q158.04 23.20 158.48 23.64Q158.92 24.08 158.92 24.72L158.92 24.72Q158.92 25.76 158.04 26.24L158.04 26.24Q155.92 27.44 153.78 28.08Q151.64 28.72 148.92 28.72L148.92 28.72Z" transform="translate(107.288 0) scale(1.935)"></path><path fill="#000000" fill-rule="nonzero" d="M1.80 28.32Q1.04 28.32 0.52 27.80Q0 27.28 0 26.52L0 26.52L0 2.24Q0 1.48 0.52 0.94Q1.04 0.40 1.80 0.40L1.80 0.40L9.84 0.40Q14.40 0.40 17.58 2.42Q20.76 4.44 22.36 7.64Q23.96 10.84 23.96 14.36L23.96 14.36Q23.96 17.88 22.36 21.08Q20.76 24.28 17.58 26.30Q14.40 28.32 9.84 28.32L9.84 28.32L1.80 28.32ZM3.64 24.92L9.40 24.92Q12.68 24.92 15.16 23.58Q17.64 22.24 19 19.86Q20.36 17.48 20.36 14.36L20.36 14.36Q20.36 11.24 19 8.86Q17.64 6.48 15.16 5.14Q12.68 3.80 9.40 3.80L9.40 3.80L3.64 3.80L3.64 24.92ZM31.84 28.32Q31.08 28.32 30.56 27.80Q30.04 27.28 30.04 26.52L30.04 26.52L30.04 2.24Q30.04 1.48 30.56 0.94Q31.08 0.40 31.84 0.40L31.84 0.40L47.88 0.40Q48.60 0.40 49.10 0.90Q49.60 1.40 49.60 2.12L49.60 2.12Q49.60 2.84 49.10 3.32Q48.60 3.80 47.88 3.80L47.88 3.80L33.68 3.80L33.68 12.64L46.44 12.64Q47.16 12.64 47.66 13.14Q48.16 13.64 48.16 14.36L48.16 14.36Q48.16 15.08 47.66 15.56Q47.16 16.04 46.44 16.04L46.44 16.04L33.68 16.04L33.68 24.92L47.88 24.92Q48.60 24.92 49.10 25.42Q49.60 25.92 49.60 26.64L49.60 26.64Q49.60 27.36 49.10 27.84Q48.60 28.32 47.88 28.32L47.88 28.32L31.84 28.32ZM65.12 28.52Q63.48 28.52 62.64 26.68L62.64 26.68L52.76 2.72Q52.64 2.40 52.64 2.04L52.64 2.04Q52.64 1.20 53.12 0.70Q53.60 0.20 54.44 0.20L54.44 0.20Q55 0.20 55.46 0.54Q55.92 0.88 56.16 1.44L56.16 1.44L65.56 24.88L74.96 1.44Q75.20 0.88 75.66 0.54Q76.12 0.20 76.68 0.20L76.68 0.20Q77.52 0.20 78 0.70Q78.48 1.20 78.48 2.04L78.48 2.04Q78.48 2.40 78.36 2.72L78.36 2.72L68.48 26.68Q67.64 28.52 66 28.52L66 28.52L65.12 28.52ZM85.12 28.32Q84.36 28.32 83.84 27.80Q83.32 27.28 83.32 26.52L83.32 26.52L83.32 2.24Q83.32 1.48 83.84 0.94Q84.36 0.40 85.12 0.40L85.12 0.40L101.16 0.40Q101.88 0.40 102.38 0.90Q102.88 1.40 102.88 2.12L102.88 2.12Q102.88 2.84 102.38 3.32Q101.88 3.80 101.16 3.80L101.16 3.80L86.96 3.80L86.96 12.64L99.72 12.64Q100.44 12.64 100.94 13.14Q101.44 13.64 101.44 14.36L101.44 14.36Q101.44 15.08 100.94 15.56Q100.44 16.04 99.72 16.04L99.72 16.04L86.96 16.04L86.96 24.92L101.16 24.92Q101.88 24.92 102.38 25.42Q102.88 25.92 102.88 26.64L102.88 26.64Q102.88 27.36 102.38 27.84Q101.88 28.32 101.16 28.32L101.16 28.32L85.12 28.32ZM111.36 28.32Q110.32 28.32 109.58 27.58Q108.84 26.84 108.84 25.80L108.84 25.80L108.84 2.04Q108.84 1.28 109.36 0.74Q109.88 0.20 110.64 0.20L110.64 0.20Q111.40 0.20 111.94 0.74Q112.48 1.28 112.48 2.04L112.48 2.04L112.48 24.68L125.56 24.68Q126.32 24.68 126.86 25.22Q127.40 25.76 127.40 26.52L127.40 26.52Q127.40 27.28 126.86 27.80Q126.32 28.32 125.56 28.32L125.56 28.32L111.36 28.32ZM144.24 28.72Q140.04 28.72 136.88 26.88Q133.72 25.04 132 21.80Q130.28 18.56 130.20 14.36L130.20 14.36Q130.28 10.16 132 6.92Q133.72 3.68 136.88 1.84Q140.04 0 144.24 0L144.24 0Q148.44 0 151.58 1.84Q154.72 3.68 156.46 6.94Q158.20 10.20 158.28 14.36L158.28 14.36Q158.20 18.52 156.46 21.78Q154.72 25.04 151.58 26.88Q148.44 28.72 144.24 28.72L144.24 28.72ZM144.24 25.32Q147.44 25.32 149.80 23.88Q152.16 22.44 153.40 19.96Q154.64 17.48 154.64 14.36L154.64 14.36Q154.64 11.24 153.40 8.76Q152.16 6.28 149.80 4.84Q147.44 3.40 144.24 3.40L144.24 3.40Q141 3.40 138.66 4.84Q136.32 6.28 135.08 8.76Q133.84 11.24 133.84 14.36L133.84 14.36Q133.84 17.48 135.08 19.96Q136.32 22.44 138.66 23.88Q141 25.32 144.24 25.32L144.24 25.32ZM166.16 28.52Q165.40 28.52 164.88 28Q164.36 27.48 164.36 26.72L164.36 26.72L164.36 2.24Q164.36 1.48 164.88 0.94Q165.40 0.40 166.16 0.40L166.16 0.40L175.28 0.40Q179.08 0.40 181.48 1.68Q183.88 2.96 184.92 4.96Q185.96 6.96 185.96 9.28L185.96 9.28Q185.96 11.60 184.92 13.60Q183.88 15.60 181.48 16.88Q179.08 18.16 175.28 18.16L175.28 18.16L168.00 18.16L168.00 26.72Q168.00 27.48 167.46 28Q166.92 28.52 166.16 28.52L166.16 28.52ZM168.00 14.72L174.92 14.72Q179.00 14.72 180.66 13.16Q182.32 11.60 182.32 9.28L182.32 9.28Q182.32 6.96 180.66 5.40Q179.00 3.84 174.92 3.84L174.92 3.84L168.00 3.84L168.00 14.72ZM193.04 28.52Q192.28 28.52 191.76 28Q191.24 27.48 191.24 26.72L191.24 26.72L191.24 2.84Q191.24 1.76 192 0.98Q192.76 0.20 193.84 0.20L193.84 0.20L195.16 0.20Q195.96 0.20 196.62 0.68Q197.28 1.16 197.60 1.88L197.60 1.88L206.68 24.52L215.76 1.88Q216.08 1.16 216.74 0.68Q217.40 0.20 218.20 0.20L218.20 0.20L219.52 0.20Q220.60 0.20 221.36 0.98Q222.12 1.76 222.12 2.84L222.12 2.84L222.12 26.72Q222.12 27.48 221.60 28Q221.08 28.52 220.32 28.52L220.32 28.52Q219.56 28.52 219.02 28Q218.48 27.48 218.48 26.72L218.48 26.72L218.48 4L209.24 26.84Q208.92 27.60 208.22 28.06Q207.52 28.52 206.68 28.52L206.68 28.52Q205.84 28.52 205.14 28.06Q204.44 27.60 204.12 26.84L204.12 26.84L194.88 4L194.88 26.72Q194.88 27.48 194.34 28Q193.80 28.52 193.04 28.52L193.04 28.52ZM231.68 28.32Q230.92 28.32 230.40 27.80Q229.88 27.28 229.88 26.52L229.88 26.52L229.88 2.24Q229.88 1.48 230.40 0.94Q230.92 0.40 231.68 0.40L231.68 0.40L247.72 0.40Q248.44 0.40 248.94 0.90Q249.44 1.40 249.44 2.12L249.44 2.12Q249.44 2.84 248.94 3.32Q248.44 3.80 247.72 3.80L247.72 3.80L233.52 3.80L233.52 12.64L246.28 12.64Q247 12.64 247.50 13.14Q248 13.64 248 14.36L248 14.36Q248 15.08 247.50 15.56Q247 16.04 246.28 16.04L246.28 16.04L233.52 16.04L233.52 24.92L247.72 24.92Q248.44 24.92 248.94 25.42Q249.44 25.92 249.44 26.64L249.44 26.64Q249.44 27.36 248.94 27.84Q248.44 28.32 247.72 28.32L247.72 28.32L231.68 28.32ZM257.20 28.52Q256.44 28.52 255.92 28Q255.40 27.48 255.40 26.72L255.40 26.72L255.40 2.84Q255.40 1.76 256.16 0.98Q256.92 0.20 258 0.20L258 0.20L258.52 0.20Q259.80 0.20 260.72 1.40L260.72 1.40L276.12 23.64L276.12 2.04Q276.12 1.28 276.64 0.74Q277.16 0.20 277.92 0.20L277.92 0.20Q278.68 0.20 279.22 0.74Q279.76 1.28 279.76 2.04L279.76 2.04L279.76 25.92Q279.76 27 278.98 27.76Q278.20 28.52 277.12 28.52L277.12 28.52L276.64 28.52Q276 28.52 275.44 28.22Q274.88 27.92 274.52 27.44L274.52 27.44L259.04 5.08L259.04 26.72Q259.04 27.48 258.50 28Q257.96 28.52 257.20 28.52L257.20 28.52ZM295.80 28.52Q295.04 28.52 294.52 28Q294 27.48 294 26.72L294 26.72L294 3.80L285.84 3.80Q285.12 3.80 284.64 3.32Q284.16 2.84 284.16 2.12L284.16 2.12Q284.16 1.40 284.64 0.90Q285.12 0.40 285.84 0.40L285.84 0.40L305.76 0.40Q306.48 0.40 306.98 0.90Q307.48 1.40 307.48 2.12L307.48 2.12Q307.48 2.84 306.98 3.32Q306.48 3.80 305.76 3.80L305.76 3.80L297.64 3.80L297.64 26.72Q297.64 27.48 297.10 28Q296.56 28.52 295.80 28.52L295.80 28.52Z" transform="translate(107.288 63.568) scale(1)"></path></svg>